mtllib konnas_house.mtl
# vertices
v 56 0 -64
v 56 0 64
v 56 64 64
v 56 64 -64
v 64 64 64
v 64 0 64
v 64 0 -64
v 64 64 -64
v -120 0 56
v -120 0 64
v -120 64 64
v -120 64 56
v 56 64 64
v 56 0 64
v 56 0 56
v 56 64 56
v 16 0 -64
v 16 0 -56
v 16 64 -56
v 16 64 -64
v 56 64 -56
v 56 0 -56
v 56 0 -64
v 56 64 -64
v -120 0 -64
v -120 0 -56
v -120 64 -56
v -120 64 -64
v -80 64 -56
v -80 0 -56
v -80 0 -64
v -80 64 -64
v -80 48 -64
v -80 48 -56
v -80 64 -56
v -80 64 -64
v 16 64 -56
v 16 48 -56
v 16 48 -64
v 16 64 -64
v -80 0 -64
v -80 0 -56
v -80 16 -56
v -80 16 -64
v 16 16 -56
v 16 0 -56
v 16 0 -64
v 16 16 -64
v -128 0 -64
v -128 0 -32
v -128 64 -32
v -128 64 -64
v -120 64 -32
v -120 0 -32
v -120 0 -64
v -120 64 -64
v -128 56 -32
v -128 56 -16
v -128 64 -16
v -128 64 -32
v -120 64 -16
v -120 56 -16
v -120 56 -32
v -120 64 -32
v -128 0 -32
v -128 0 -16
v -128 40 -16
v -128 40 -32
v -120 40 -16
v -120 0 -16
v -120 0 -32
v -120 40 -32
v -128 0 32
v -128 0 64
v -128 64 64
v -128 64 32
v -120 64 64
v -120 0 64
v -120 0 32
v -120 64 32
v -128 56 16
v -128 56 32
v -128 64 32
v -128 64 16
v -120 64 32
v -120 56 32
v -120 56 16
v -120 64 16
v -128 0 16
v -128 0 32
v -128 40 32
v -128 40 16
v -120 40 32
v -120 0 32
v -120 0 16
v -120 40 16
v -128 56 -16
v -128 56 16
v -128 64 16
v -128 64 -16
v -120 64 16
v -120 56 16
v -120 56 -16
v -120 64 -16
v -128 32 -16
v -128 32 16
v -128 40 16
v -128 40 -16
v -120 40 16
v -120 32 16
v -120 32 -16
v -120 40 -16
v -136 0 56
v -136 0 72
v -136 64 72
v -136 64 56
v -120 64 72
v -120 0 72
v -120 0 56
v -120 64 56
v 56 0 56
v 56 0 72
v 56 64 72
v 56 64 56
v 72 64 72
v 72 0 72
v 72 0 56
v 72 64 56
v 56 0 -72
v 56 0 -56
v 56 64 -56
v 56 64 -72
v 72 64 -56
v 72 0 -56
v 72 0 -72
v 72 64 -72
v -136 0 -72
v -136 0 -56
v -136 64 -56
v -136 64 -72
v -120 64 -56
v -120 0 -56
v -120 0 -72
v -120 64 -72
v -136 64 -72
v -136 64 72
v -136 96 -0
v 72 96 -0
v 72 64 72
v 72 64 -72
v -136 -8 -72
v -136 -8 72
v -136 0 72
v -136 0 -72
v 72 0 72
v 72 -8 72
v 72 -8 -72
v 72 0 -72
v -128 40 -32
v -128 40 32
v -128 56 32
v -128 56 -32
v -120 56 32
v -120 40 32
v -120 40 -32
v -120 56 -32
v -80 16 -64
v -80 16 -56
v -80 48 -56
v -80 48 -64
v 16 48 -56
v 16 16 -56
v 16 16 -64
v 16 48 -64

# texture coordinates
vt 64 -0
vt -64 -0
vt -64 64
vt 64 64
vt 56 64
vt 56 -0
vt 64 -64
vt 56 -64
vt -56 -0
vt -56 64
vt -120 64
vt -120 -0
vt -120 -64
vt -120 -56
vt 56 -56
vt 16 64
vt 16 -0
vt 56 56
vt 16 56
vt -80 64
vt -80 -0
vt -80 56
vt -120 56
vt 64 48
vt 56 48
vt -80 48
vt 16 48
vt 56 16
vt 64 16
vt 16 16
vt -80 16
vt 32 -0
vt 32 64
vt -128 64
vt -128 -0
vt -120 32
vt -128 32
vt 32 56
vt -128 56
vt -120 16
vt -128 16
vt 16 40
vt 32 40
vt -120 40
vt -128 40
vt -32 -0
vt -32 64
vt -128 -64
vt -128 -32
vt -120 -32
vt -16 56
vt -32 56
vt -16 64
vt -128 -16
vt -120 -16
vt -16 -0
vt -32 40
vt -16 40
vt 16 32
vt -16 32
vt -72 -0
vt -72 64
vt -136 64
vt -136 -0
vt -120 -72
vt -136 -72
vt -136 -56
vt 72 64
vt 72 -0
vt 72 -72
vt 56 -72
vt 72 -56
vt 72 56
vt 56 72
vt 72 72
vt -136 56
vt -136 72
vt -120 72
vt 0 96
vt 72 -8
vt -72 -8
vt -136 -8

# normals
vn -1 0 -0
vn 0 0 1
vn 0 -1 -0
vn 0 1 -0
vn 0 0 -1
vn 1 0 -0
vn 0 0.9138115486202572 0.4061384660534476
vn -0 0.9138115486202572 -0.4061384660534476

o entity0_brush0
usemtl __TB_empty
f  1/1/1  2/2/1  3/3/1  4/4/1
usemtl __TB_empty
f  5/4/2  3/5/2  2/6/2  6/1/2
usemtl __TB_empty
f  6/7/3  2/8/3  1/5/3  7/4/3
usemtl __TB_empty
f  8/4/4  4/5/4  3/8/4  5/7/4
usemtl __TB_empty
f  7/1/5  1/6/5  4/5/5  8/4/5
usemtl __TB_empty
f  8/4/6  5/3/6  6/2/6  7/1/6

o entity0_brush1
usemtl __TB_empty
f  9/9/1  10/2/1  11/3/1  12/10/1
usemtl __TB_empty
f  13/5/2  11/11/2  10/12/2  14/6/2
usemtl __TB_empty
f  14/8/3  10/13/3  9/14/3  15/15/3
usemtl __TB_empty
f  16/15/4  12/14/4  11/13/4  13/8/4
usemtl __TB_empty
f  15/6/5  9/12/5  12/11/5  16/5/5
usemtl __TB_empty
f  16/10/6  13/3/6  14/2/6  15/9/6

o entity0_brush2
usemtl __TB_empty
f  17/1/1  18/6/1  19/5/1  20/4/1
usemtl __TB_empty
f  21/5/2  19/16/2  18/17/2  22/6/2
usemtl __TB_empty
f  22/18/3  18/19/3  17/16/3  23/5/3
usemtl __TB_empty
f  24/5/4  20/16/4  19/19/4  21/18/4
usemtl __TB_empty
f  23/6/5  17/17/5  20/16/5  24/5/5
usemtl __TB_empty
f  24/4/6  21/5/6  22/6/6  23/1/6

o entity0_brush3
usemtl __TB_empty
f  25/1/1  26/6/1  27/5/1  28/4/1
usemtl __TB_empty
f  29/20/2  27/11/2  26/12/2  30/21/2
usemtl __TB_empty
f  30/22/3  26/23/3  25/11/3  31/20/3
usemtl __TB_empty
f  32/20/4  28/11/4  27/23/4  29/22/4
usemtl __TB_empty
f  31/21/5  25/12/5  28/11/5  32/20/5
usemtl __TB_empty
f  32/4/6  29/5/6  30/6/6  31/1/6

o entity0_brush4
usemtl __TB_empty
f  33/24/1  34/25/1  35/5/1  36/4/1
usemtl __TB_empty
f  37/16/2  35/20/2  34/26/2  38/27/2
usemtl __TB_empty
f  38/19/3  34/22/3  33/20/3  39/16/3
usemtl __TB_empty
f  40/16/4  36/20/4  35/22/4  37/19/4
usemtl __TB_empty
f  39/27/5  33/26/5  36/20/5  40/16/5
usemtl __TB_empty
f  40/4/6  37/5/6  38/25/6  39/24/6

o entity0_brush5
usemtl __TB_empty
f  41/1/1  42/6/1  43/28/1  44/29/1
usemtl __TB_empty
f  45/30/2  43/31/2  42/21/2  46/17/2
usemtl __TB_empty
f  46/19/3  42/22/3  41/20/3  47/16/3
usemtl __TB_empty
f  48/16/4  44/20/4  43/22/4  45/19/4
usemtl __TB_empty
f  47/17/5  41/21/5  44/31/5  48/30/5
usemtl __TB_empty
f  48/29/6  45/28/6  46/6/6  47/1/6

o entity0_brush6
usemtl __TB_empty
f  49/1/1  50/32/1  51/33/1  52/4/1
usemtl __TB_empty
f  53/11/2  51/34/2  50/35/2  54/12/2
usemtl __TB_empty
f  54/36/3  50/37/3  49/34/3  55/11/3
usemtl __TB_empty
f  56/11/4  52/34/4  51/37/4  53/36/4
usemtl __TB_empty
f  55/12/5  49/35/5  52/34/5  56/11/5
usemtl __TB_empty
f  56/4/6  53/33/6  54/32/6  55/1/6

o entity0_brush7
usemtl __TB_empty
f  57/38/1  58/19/1  59/16/1  60/33/1
usemtl __TB_empty
f  61/11/2  59/34/2  58/39/2  62/23/2
usemtl __TB_empty
f  62/40/3  58/41/3  57/37/3  63/36/3
usemtl __TB_empty
f  64/36/4  60/37/4  59/41/4  61/40/4
usemtl __TB_empty
f  63/23/5  57/39/5  60/34/5  64/11/5
usemtl __TB_empty
f  64/33/6  61/16/6  62/19/6  63/38/6

o entity0_brush8
usemtl __TB_empty
f  65/32/1  66/17/1  67/42/1  68/43/1
usemtl __TB_empty
f  69/44/2  67/45/2  66/35/2  70/12/2
usemtl __TB_empty
f  70/40/3  66/41/3  65/37/3  71/36/3
usemtl __TB_empty
f  72/36/4  68/37/4  67/41/4  69/40/4
usemtl __TB_empty
f  71/12/5  65/35/5  68/45/5  72/44/5
usemtl __TB_empty
f  72/43/6  69/42/6  70/17/6  71/32/6

o entity0_brush9
usemtl __TB_empty
f  73/46/1  74/2/1  75/3/1  76/47/1
usemtl __TB_empty
f  77/11/2  75/34/2  74/35/2  78/12/2
usemtl __TB_empty
f  78/13/3  74/48/3  73/49/3  79/50/3
usemtl __TB_empty
f  80/50/4  76/49/4  75/48/4  77/13/4
usemtl __TB_empty
f  79/12/5  73/35/5  76/34/5  80/11/5
usemtl __TB_empty
f  80/47/6  77/3/6  78/2/6  79/46/6

o entity0_brush10
usemtl __TB_empty
f  81/51/1  82/52/1  83/47/1  84/53/1
usemtl __TB_empty
f  85/11/2  83/34/2  82/39/2  86/23/2
usemtl __TB_empty
f  86/50/3  82/49/3  81/54/3  87/55/3
usemtl __TB_empty
f  88/55/4  84/54/4  83/49/4  85/50/4
usemtl __TB_empty
f  87/23/5  81/39/5  84/34/5  88/11/5
usemtl __TB_empty
f  88/53/6  85/47/6  86/52/6  87/51/6

o entity0_brush11
usemtl __TB_empty
f  89/56/1  90/46/1  91/57/1  92/58/1
usemtl __TB_empty
f  93/44/2  91/45/2  90/35/2  94/12/2
usemtl __TB_empty
f  94/50/3  90/49/3  89/54/3  95/55/3
usemtl __TB_empty
f  96/55/4  92/54/4  91/49/4  93/50/4
usemtl __TB_empty
f  95/12/5  89/35/5  92/45/5  96/44/5
usemtl __TB_empty
f  96/58/6  93/57/6  94/46/6  95/56/6

o entity0_brush12
usemtl __TB_empty
f  97/19/1  98/51/1  99/53/1  100/16/1
usemtl __TB_empty
f  101/11/2  99/34/2  98/39/2  102/23/2
usemtl __TB_empty
f  102/55/3  98/54/3  97/41/3  103/40/3
usemtl __TB_empty
f  104/40/4  100/41/4  99/54/4  101/55/4
usemtl __TB_empty
f  103/23/5  97/39/5  100/34/5  104/11/5
usemtl __TB_empty
f  104/16/6  101/53/6  102/51/6  103/19/6

o entity0_brush13
usemtl __TB_empty
f  105/59/1  106/60/1  107/58/1  108/42/1
usemtl __TB_empty
f  109/44/2  107/45/2  106/37/2  110/36/2
usemtl __TB_empty
f  110/55/3  106/54/3  105/41/3  111/40/3
usemtl __TB_empty
f  112/40/4  108/41/4  107/54/4  109/55/4
usemtl __TB_empty
f  111/36/5  105/37/5  108/45/5  112/44/5
usemtl __TB_empty
f  112/42/6  109/58/6  110/60/6  111/59/6

o entity0_brush14
usemtl __TB_empty
f  113/9/1  114/61/1  115/62/1  116/10/1
usemtl __TB_empty
f  117/11/2  115/63/2  114/64/2  118/12/2
usemtl __TB_empty
f  118/65/3  114/66/3  113/67/3  119/14/3
usemtl __TB_empty
f  120/14/4  116/67/4  115/66/4  117/65/4
usemtl __TB_empty
f  119/12/5  113/64/5  116/63/5  120/11/5
usemtl __TB_empty
f  120/10/6  117/62/6  118/61/6  119/9/6

o entity0_brush15
usemtl __TB_empty
f  121/9/1  122/61/1  123/62/1  124/10/1
usemtl __TB_empty
f  125/68/2  123/5/2  122/6/2  126/69/2
usemtl __TB_empty
f  126/70/3  122/71/3  121/15/3  127/72/3
usemtl __TB_empty
f  128/72/4  124/15/4  123/71/4  125/70/4
usemtl __TB_empty
f  127/69/5  121/6/5  124/5/5  128/68/5
usemtl __TB_empty
f  128/10/6  125/62/6  126/61/6  127/9/6

o entity0_brush16
usemtl __TB_empty
f  129/69/1  130/6/1  131/5/1  132/68/1
usemtl __TB_empty
f  133/68/2  131/5/2  130/6/2  134/69/2
usemtl __TB_empty
f  134/73/3  130/18/3  129/74/3  135/75/3
usemtl __TB_empty
f  136/75/4  132/74/4  131/18/4  133/73/4
usemtl __TB_empty
f  135/69/5  129/6/5  132/5/5  136/68/5
usemtl __TB_empty
f  136/68/6  133/5/6  134/6/6  135/69/6

o entity0_brush17
usemtl __TB_empty
f  137/69/1  138/6/1  139/5/1  140/68/1
usemtl __TB_empty
f  141/11/2  139/63/2  138/64/2  142/12/2
usemtl __TB_empty
f  142/23/3  138/76/3  137/77/3  143/78/3
usemtl __TB_empty
f  144/78/4  140/77/4  139/76/4  141/23/4
usemtl __TB_empty
f  143/12/5  137/64/5  140/63/5  144/11/5
usemtl __TB_empty
f  144/68/6  141/5/6  142/6/6  143/69/6

o entity0_brush18
usemtl __TB_empty
f  145/68/1  146/62/1  147/79/1
usemtl __TB_empty
f  148/69/7  147/64/7  146/66/7  149/70/7
usemtl __TB_empty
f  149/70/3  146/66/3  145/77/3  150/75/3
usemtl __TB_empty
f  150/75/8  145/77/8  147/64/8  148/69/8
usemtl __TB_empty
f  149/62/6  150/68/6  148/79/6

o entity0_brush19
usemtl __TB_empty
f  151/80/1  152/81/1  153/61/1  154/69/1
usemtl __TB_empty
f  155/69/2  153/64/2  152/82/2  156/80/2
usemtl __TB_empty
f  156/70/3  152/66/3  151/77/3  157/75/3
usemtl __TB_empty
f  158/75/4  154/77/4  153/66/4  155/70/4
usemtl __TB_empty
f  157/80/5  151/82/5  154/64/5  158/69/5
usemtl __TB_empty
f  158/69/6  155/61/6  156/81/6  157/80/6

o entity0_brush20
usemtl __TB_empty
f  159/43/1  160/57/1  161/52/1  162/38/1
usemtl __TB_empty
f  163/23/2  161/39/2  160/45/2  164/44/2
usemtl __TB_empty
f  164/50/3  160/49/3  159/37/3  165/36/3
usemtl __TB_empty
f  166/36/4  162/37/4  161/49/4  163/50/4
usemtl __TB_empty
f  165/44/5  159/45/5  162/39/5  166/23/5
usemtl __TB_empty
f  166/38/6  163/52/6  164/57/6  165/43/6

o entity0_brush21
usemtl __TB_empty
f  167/29/1  168/28/1  169/25/1  170/24/1
usemtl __TB_empty
f  171/27/2  169/26/2  168/31/2  172/30/2
usemtl __TB_empty
f  172/19/3  168/22/3  167/20/3  173/16/3
usemtl __TB_empty
f  174/16/4  170/20/4  169/22/4  171/19/4
usemtl __TB_empty
f  173/30/5  167/31/5  170/26/5  174/27/5
usemtl __TB_empty
f  174/24/6  171/25/6  172/28/6  173/29/6

